<?xml version="1.0" standalone="no"?>
<!DOCTYPE svg PUBLIC "-//W3C//DTD SVG 20010904//EN"
 "http://www.w3.org/TR/2001/REC-SVG-20010904/DTD/svg10.dtd">
<svg version="1.0" xmlns="http://www.w3.org/2000/svg"
 width="506.000000pt" height="506.000000pt" viewBox="0 0 506.000000 506.000000"
 preserveAspectRatio="xMidYMid meet">
<metadata>
Created by potrace 1.14, written by Peter Selinger 2001-2017
</metadata>
<g transform="translate(0.000000,506.000000) scale(0.100000,-0.100000)"
fill="#000000" stroke="none">
<path d="M3729 4446 c-80 -32 -215 -122 -499 -333 -375 -278 -495 -499 -343
-633 43 -38 68 -49 103 -45 45 6 75 27 180 128 133 127 242 195 363 228 60 16
69 17 155 23 158 12 214 33 264 98 85 112 94 325 20 462 -52 95 -131 119 -243
72z"/>
<path d="M4078 4448 c-14 -5 -29 -15 -32 -23 -2 -7 13 -42 35 -77 79 -125 98
-192 76 -264 -5 -18 -34 -63 -64 -101 -30 -37 -61 -83 -69 -102 -61 -145 29
-385 205 -548 48 -44 118 -83 149 -83 27 0 63 29 77 64 14 34 42 147 51 206 3
19 8 46 10 60 10 49 12 316 2 385 -35 256 -140 424 -298 474 -50 15 -111 19
-142 9z"/>
<path d="M3610 3756 c-125 -38 -259 -101 -355 -166 -56 -39 -129 -119 -141
-155 -34 -100 77 -221 223 -244 92 -14 135 12 159 98 32 118 60 161 115 180
27 9 111 7 159 -4 95 -23 142 -13 158 33 13 39 7 113 -13 153 -65 126 -145
153 -305 105z"/>
<path d="M1211 3654 c-25 -32 -53 -124 -66 -219 -3 -22 -8 -53 -10 -70 -24
-140 -20 -416 7 -590 20 -129 68 -225 112 -225 14 0 73 23 133 51 59 28 144
68 188 89 232 107 245 117 245 173 0 58 -60 137 -140 184 -45 27 -82 34 -171
35 -99 1 -112 14 -93 94 19 83 18 191 -5 262 -36 116 -122 242 -166 242 -7 0
-23 -12 -34 -26z"/>
<path d="M2108 3495 c-56 -19 -95 -55 -126 -116 -39 -75 -49 -89 -134 -182
-110 -119 -115 -134 -69 -184 47 -52 143 -94 363 -159 318 -94 470 -104 633
-43 232 88 399 268 364 393 -5 18 -33 57 -62 87 -142 143 -262 177 -394 110
-70 -36 -123 -43 -211 -26 -80 16 -104 26 -202 84 -82 49 -108 55 -162 36z"/>
<path d="M3778 3394 c-3 -3 -18 -7 -33 -10 -57 -10 -126 -61 -149 -109 -54
-113 30 -309 208 -490 243 -246 581 -379 778 -305 102 38 198 168 213 287 12
93 12 108 0 159 -24 102 -91 156 -198 158 -76 1 -91 -16 -82 -90 5 -40 2 -55
-12 -73 -22 -27 -95 -49 -146 -45 -130 12 -185 62 -172 156 16 126 15 155 -10
203 -32 60 -66 89 -145 128 -56 27 -77 31 -156 34 -50 1 -93 0 -96 -3z"/>
<path d="M3230 3141 c-30 -15 -37 -27 -51 -78 -31 -114 -58 -147 -160 -195
-110 -52 -110 -62 -1 -175 28 -28 58 -66 68 -84 28 -54 29 -143 5 -234 -30
-109 -35 -149 -21 -190 38 -116 268 -179 403 -111 63 32 83 61 92 135 9 75 11
82 28 124 25 59 75 114 159 174 109 79 112 97 22 151 -83 51 -176 129 -205
172 -16 23 -35 78 -48 134 -26 113 -57 152 -141 179 -68 22 -107 21 -150 -2z"/>
<path d="M1880 2786 c-59 -14 -143 -56 -205 -104 -101 -77 -177 -215 -179
-325 -2 -94 23 -97 215 -32 134 46 228 68 334 81 67 8 342 8 420 0 28 -3 129
-8 225 -12 195 -7 232 0 266 52 19 28 24 97 11 146 -33 123 -242 185 -462 136
-136 -30 -234 -21 -359 32 -84 35 -106 41 -159 39 -34 -2 -82 -8 -107 -13z"/>
<path d="M361 2668 c-39 -42 -81 -130 -96 -199 -33 -157 27 -341 162 -498 53
-62 95 -81 173 -81 110 0 313 85 527 221 220 140 304 226 333 342 19 75 7 82
-88 48 -78 -29 -101 -30 -195 -11 -78 16 -92 13 -141 -34 -72 -67 -138 -76
-282 -36 -150 41 -225 96 -279 205 -17 33 -34 63 -40 67 -20 15 -45 7 -74 -24z"/>
<path d="M3945 2495 c-175 -51 -331 -298 -319 -500 13 -195 165 -399 281 -377
32 6 92 65 158 155 28 37 82 109 121 160 88 116 225 311 265 378 51 88 30 115
-64 84 -63 -21 -148 -24 -201 -6 -22 8 -60 33 -85 56 -56 52 -101 67 -156 50z"/>
<path d="M2168 2365 c-2 -1 -29 -5 -61 -9 -78 -8 -191 -38 -312 -82 -95 -35
-106 -37 -236 -39 -126 -1 -140 -3 -190 -28 -155 -78 -178 -180 -58 -267 81
-58 183 -77 302 -53 62 12 272 47 347 58 149 22 172 28 232 67 132 85 241 232
218 292 -14 37 -68 57 -162 61 -42 1 -79 1 -80 0z"/>
<path d="M2715 2292 c-80 -5 -187 -43 -223 -79 -16 -15 -37 -80 -47 -139 -3
-21 -12 -68 -21 -104 -8 -36 -18 -93 -21 -128 -8 -86 8 -103 91 -101 91 2 132
-9 224 -58 104 -56 121 -54 209 27 36 33 86 71 112 86 69 40 111 73 111 89 0
7 -31 34 -70 60 -130 86 -148 117 -124 209 7 28 11 59 8 69 -13 40 -141 76
-249 69z"/>
<path d="M1083 1999 c-13 -4 -51 -35 -85 -68 -93 -91 -169 -120 -361 -140 -4
-1 -11 -11 -16 -23 -9 -25 3 -55 50 -124 84 -123 137 -275 130 -376 -2 -34
-37 -58 -79 -53 -55 6 -74 -11 -77 -69 -6 -111 66 -264 143 -305 55 -29 107 4
253 164 246 268 289 345 295 515 9 239 -141 521 -253 479z"/>
<path d="M3441 1988 c-86 -23 -226 -122 -325 -229 -162 -176 -248 -371 -250
-569 -1 -85 2 -101 28 -153 86 -176 246 -204 458 -81 89 52 161 110 244 196
159 164 232 306 198 387 -7 17 -17 31 -21 31 -14 0 -136 120 -175 172 -42 58
-70 130 -72 194 -1 24 -4 46 -7 49 -11 11 -44 12 -78 3z"/>
<path d="M2225 1958 c-22 -18 -51 -43 -64 -54 -13 -12 -49 -35 -80 -50 l-56
-27 -275 -1 c-245 -1 -279 -3 -312 -19 -44 -22 -61 -59 -59 -130 1 -62 34
-131 73 -155 24 -14 31 -14 90 4 84 25 121 21 182 -18 72 -46 127 -45 192 1
27 19 51 38 54 42 28 38 198 109 261 109 103 0 160 229 78 311 -26 26 -38 24
-84 -13z"/>
<path d="M2478 1584 c-2 -1 -34 -5 -73 -8 -38 -4 -77 -9 -85 -11 -8 -2 -28 -7
-45 -10 -231 -40 -394 -133 -366 -208 5 -14 20 -32 33 -41 42 -29 119 -109
135 -139 40 -78 46 -144 24 -259 -17 -89 -9 -131 32 -160 29 -21 44 -23 147
-24 131 -2 256 15 348 46 89 29 191 80 201 99 19 35 -3 89 -62 155 -37 42 -67
119 -67 170 1 63 15 102 68 190 23 39 42 82 42 96 0 62 -84 98 -239 104 -50 1
-92 2 -93 0z"/>
<path d="M1530 1400 c-81 -15 -99 -33 -144 -147 -64 -163 -211 -317 -420 -441
-46 -28 -56 -38 -56 -61 0 -32 25 -61 82 -97 131 -83 297 -86 471 -9 84 37
129 42 238 30 59 -7 73 -5 120 17 152 71 222 236 171 404 -12 38 -37 91 -56
119 -91 127 -270 209 -406 185z"/>
</g>
</svg>
